<svg id="Camada_1" data-name="Camada 1" xmlns="http://www.w3.org/2000/svg" viewBox="0 0 506 187"><defs><style>.cls-1{fill:none;stroke:#ec6b30;stroke-miterlimit:10;stroke-width:5px;}.cls-2,.cls-3{fill:#e9581a;}.cls-3{font-size:81.61px;font-family:AkrutiOfficeShyamaNormal, AkrutiOfficeShyama;letter-spacing:0.04em;}</style></defs><path class="cls-1" d="M98.26,179.94h51.38a8.63,8.63,0,0,0,8.63-8.63V50.92a11.9,11.9,0,0,0-8.2-11.31L98.26,22.67Z"/><path class="cls-1" d="M64.09,125.82V85.76A8.29,8.29,0,0,1,69.36,78l19.13-7.46V22.67L14.2,59.82A7.57,7.57,0,0,0,10,66.61V171.47a8.47,8.47,0,0,0,8.47,8.47h70V133.07l-15.58,1A8.29,8.29,0,0,1,64.09,125.82Z"/><polygon class="cls-2" points="6 55.14 6 44.91 93.86 2 160.62 24.17 160.62 33.86 94.51 11.91 6 55.14"/><path class="cls-2" d="M176.13,72.5h17.53v109H176.13Zm10.12,91.81H211.1q10.85,0,16.83-5.54t6-15.74V111q0-10.2-6-15.74T211.1,89.66H186.25V72.5h24.41q13.05,0,22.33,4.57A31.71,31.71,0,0,1,247.1,90.41q4.83,8.78,4.84,21.14v30.88q0,12.06-4.77,20.83a32.09,32.09,0,0,1-14,13.49q-9.27,4.73-22.54,4.73H186.25Z"/><path class="cls-2" d="M299.06,181.48H281.17V72.5h17.89Z"/><path class="cls-2" d="M360.26,72.5H373l40,109H394.2L366.64,100.3l-27.57,81.18H320.23Zm-21.19,71.13h56.08v17.16H339.07Z"/><path class="cls-2" d="M498.29,88.31l-45.16,76h46.62v17.17H432V165.66l45.31-76h-44V72.5h65Z"/><text class="cls-3" transform="translate(174.95 61.62) scale(1.01 1)">CORRETOR</text></svg>